<svg width="50" height="50" viewBox="0 0 50 50" fill="none" xmlns="http://www.w3.org/2000/svg">
<path fill-rule="evenodd" clip-rule="evenodd" d="M7.27 32.0129C6.98348 31.8447 6.7071 31.6724 6.44088 31.4964C3.43091 29.5033 1.72412 26.9933 1.72412 24.335C1.72412 21.6767 3.43091 19.1664 6.44088 17.1737C6.7071 16.9975 6.98348 16.8253 7.27 16.6568C7.18148 16.3261 7.10247 16 7.03329 15.6785C6.25272 12.0439 6.74359 9.00716 8.54145 7.12783C10.3393 5.24785 13.2439 4.73464 16.7203 5.55105C17.0275 5.62305 17.3397 5.70566 17.6561 5.79821C17.8169 5.49897 17.9819 5.21002 18.1504 4.93169C20.0565 1.78445 22.4576 0 24.9998 0C27.5424 0 29.9434 1.78445 31.8495 4.93169C32.0183 5.21002 32.1831 5.49897 32.3439 5.79821C32.6602 5.70566 32.9722 5.62305 33.2796 5.55105C36.756 4.73464 39.6607 5.24817 41.4584 7.12783C43.2564 9.00716 43.7472 12.0439 42.9667 15.6785C42.8976 16 42.8184 16.3261 42.73 16.6568C43.0162 16.8253 43.2929 16.9975 43.5588 17.1737C46.5691 19.1664 48.2758 21.6767 48.2758 24.335C48.2758 26.9933 46.5691 29.5033 43.5588 31.4964C43.2929 31.6724 43.0162 31.8447 42.73 32.0129C42.8184 32.3436 42.8976 32.67 42.9667 32.9912C43.7472 36.6257 43.2564 39.6626 41.4584 41.5422C39.6607 43.4219 36.756 43.935 33.2796 43.119C32.9722 43.0466 32.6602 42.9643 32.3439 42.8716C32.1831 43.171 32.0183 43.46 31.8495 43.7379C29.9434 46.8852 27.5424 48.6697 24.9998 48.6697C22.4576 48.6697 20.0565 46.8852 18.1504 43.7379C17.9819 43.46 17.8169 43.171 17.6561 42.8716C17.3397 42.9643 17.0275 43.0466 16.7203 43.119C13.2439 43.935 10.3393 43.4219 8.54145 41.5422C6.74359 39.6626 6.25272 36.6257 7.03329 32.9912C7.10247 32.67 7.18148 32.3436 7.27 32.0129ZM7.78785 18.3278C7.62857 18.4253 7.47276 18.5248 7.32045 18.6257C4.88069 20.241 3.36809 22.1803 3.36809 24.335C3.36809 26.4893 4.88069 28.4288 7.32045 30.0443C7.47276 30.1448 7.62857 30.2443 7.78785 30.3422C8.45831 28.426 9.42357 26.3959 10.656 24.335C9.42357 22.274 8.45831 20.244 7.78785 18.3278ZM16.892 7.36238C16.7134 7.31393 16.536 7.26916 16.3602 7.22802C13.5422 6.56619 11.1611 6.81931 9.70374 8.343C8.24667 9.86636 8.00457 12.3561 8.63728 15.302C8.67695 15.4858 8.71978 15.6712 8.7661 15.8583C10.5364 14.9991 12.5919 14.2769 14.8571 13.7308C15.3794 11.3622 16.0702 9.21317 16.892 7.36238ZM30.7458 6.3396C30.6521 6.17307 30.5571 6.01019 30.461 5.85128C28.9157 3.30017 27.0607 1.71909 24.9998 1.71909C22.9393 1.71909 21.0843 3.30017 19.5393 5.85128C19.4429 6.01019 19.3476 6.17307 19.2541 6.3396C21.0871 7.04091 23.0288 8.04974 24.9998 9.33824C26.9712 8.04974 28.9131 7.04091 30.7458 6.3396ZM41.2339 15.8583C41.2802 15.6712 41.3231 15.4858 41.3627 15.302C41.9953 12.3561 41.7533 9.86636 40.2958 8.343C38.8388 6.81931 36.4574 6.56619 33.6398 7.22802C33.4643 7.26916 33.2865 7.31393 33.1079 7.36238C33.9298 9.21317 34.6203 11.3622 35.1429 13.7308C37.4084 14.2769 39.4636 14.9991 41.2339 15.8583ZM42.2121 30.3422C42.3714 30.2443 42.5272 30.1448 42.6795 30.0443C45.1193 28.4288 46.6319 26.4893 46.6319 24.335C46.6319 22.1803 45.1193 20.241 42.6795 18.6257C42.5272 18.5248 42.3714 18.4253 42.2121 18.3278C41.5417 20.244 40.5767 22.274 39.3439 24.335C40.5767 26.3959 41.5417 28.426 42.2121 30.3422ZM33.1079 41.3072C33.2865 41.3557 33.4643 41.4009 33.6398 41.4421C36.4577 42.1035 38.8388 41.8503 40.2958 40.3271C41.7533 38.8033 41.9953 36.314 41.3627 33.3681C41.3231 33.1843 41.2802 32.9988 41.2339 32.8117C39.4636 33.6709 37.4084 34.3931 35.1429 34.9391C34.6203 37.3078 33.9298 39.4566 33.1079 41.3072ZM19.2541 42.33C19.3476 42.4969 19.4429 42.6595 19.5393 42.8188C21.0843 45.3695 22.9393 46.9509 24.9998 46.9509C27.0607 46.9509 28.9157 45.3695 30.461 42.8188C30.5571 42.6595 30.6521 42.4969 30.7458 42.33C28.9131 41.6291 26.9712 40.6203 24.9998 39.3317C23.0288 40.6203 21.0871 41.6291 19.2541 42.33ZM8.7661 32.8117C8.71978 32.9988 8.67695 33.1843 8.63728 33.3681C8.00457 36.314 8.24667 38.8033 9.70374 40.3271C11.1611 41.8503 13.5422 42.1035 16.3602 41.4421C16.536 41.4009 16.7134 41.3557 16.892 41.3072C16.0702 39.4566 15.3794 37.3078 14.8571 34.9391C12.5919 34.3928 10.5364 33.6709 8.7661 32.8117ZM14.4909 15.5846C12.5471 16.0982 10.7819 16.75 9.25285 17.5153C9.8164 19.1871 10.6233 20.9533 11.6507 22.7533C12.3552 21.6864 13.1281 20.6172 13.9668 19.5569C14.0908 18.1871 14.2672 16.8595 14.4909 15.5846ZM11.6507 25.9167C10.6233 27.7167 9.8164 29.4829 9.25285 31.1543C10.7819 31.9197 12.5471 32.5719 14.4909 33.085C14.2672 31.8102 14.0908 30.4826 13.9668 29.1131C13.1281 28.0526 12.3552 26.9836 11.6507 25.9167ZM23.4869 10.3782C21.7655 9.3044 20.0762 8.46045 18.4773 7.87126C17.7452 9.46993 17.1214 11.3154 16.6306 13.3477C17.8496 13.1138 19.1195 12.9293 20.43 12.7996C21.4441 11.9228 22.4667 11.1147 23.4869 10.3782ZM33.3695 13.3477C32.8786 11.3154 32.2546 9.46993 31.5227 7.87126C29.9238 8.46045 28.2348 9.3044 26.5131 10.3782C27.5333 11.1147 28.5558 11.9228 29.57 12.7996C30.8802 12.9293 32.15 13.1138 33.3695 13.3477ZM38.3493 22.7533C39.3764 20.9533 40.1836 19.1871 40.7471 17.5153C39.2181 16.75 37.4529 16.0982 35.5089 15.5846C35.7327 16.8595 35.9091 18.1871 36.0336 19.5569C36.8719 20.6172 37.6452 21.6864 38.3493 22.7533ZM35.5089 33.085C37.4529 32.5719 39.2181 31.9197 40.7471 31.1543C40.1836 29.4829 39.3764 27.7167 38.3493 25.9167C37.6452 26.9836 36.8719 28.0526 36.0336 29.1131C35.9091 30.4826 35.7327 31.8102 35.5089 33.085ZM26.5131 38.2914C28.2348 39.3657 29.9238 40.2093 31.5227 40.7985C32.2546 39.1998 32.8786 37.3547 33.3695 35.3224C32.15 35.5559 30.8802 35.7403 29.57 35.8703C28.5558 36.7472 27.5333 37.5553 26.5131 38.2914ZM16.6306 35.3224C17.1214 37.3547 17.7452 39.1998 18.4773 40.7985C20.0762 40.2093 21.7655 39.3657 23.4869 38.2914C22.4667 37.5553 21.4441 36.7472 20.43 35.8703C19.1195 35.7403 17.8496 35.5559 16.6306 35.3224ZM13.7814 22.5857C13.3677 23.169 12.9755 23.7528 12.6055 24.335C12.9755 24.9169 13.3677 25.501 13.7814 26.0843C13.7624 25.5067 13.7529 24.9231 13.7529 24.335C13.7529 23.7469 13.7624 23.1633 13.7814 22.5857ZM16.2355 15.1719C16.1038 15.8573 15.9861 16.5599 15.8839 17.2781C16.2615 16.8559 16.6493 16.4362 17.0472 16.0202C17.4451 15.6042 17.8465 15.1988 18.2504 14.804C17.5634 14.9112 16.8911 15.0339 16.2355 15.1719ZM15.8839 31.3919C15.9861 32.11 16.1038 32.8128 16.2355 33.4981C16.8911 33.636 17.5634 33.7588 18.2504 33.8657C17.8465 33.4709 17.4451 33.0655 17.0472 32.6495C16.6493 32.2338 16.2615 31.8141 15.8839 31.3919ZM24.9998 11.3765C24.4433 11.7633 23.8848 12.1733 23.3271 12.6059C23.8795 12.586 24.4372 12.5764 24.9998 12.5764C25.5627 12.5764 26.1205 12.586 26.6733 12.6059C26.1152 12.1733 25.5567 11.7633 24.9998 11.3765ZM33.7641 15.1719C33.1086 15.0339 32.4365 14.9112 31.7498 14.804C32.1538 15.1988 32.5548 15.6042 32.9527 16.0202C33.3507 16.4362 33.7384 16.8559 34.116 17.2781C34.0136 16.5599 33.8962 15.857 33.7641 15.1719ZM37.3948 24.335C37.0245 23.7528 36.6319 23.169 36.2188 22.5857C36.2372 23.1633 36.2471 23.7469 36.2471 24.335C36.2471 24.9231 36.2372 25.5067 36.2188 26.0843C36.6319 25.501 37.0245 24.9169 37.3948 24.335ZM33.7641 33.4981C33.8962 32.8128 34.0136 32.11 34.116 31.3919C33.7384 31.8141 33.3507 32.2338 32.9527 32.6495C32.5548 33.0655 32.1538 33.4709 31.7498 33.8657C32.4365 33.7588 33.1086 33.636 33.7641 33.4981ZM24.9998 37.2936C25.5567 36.9064 26.1152 36.4964 26.6733 36.0641C26.1205 36.0836 25.5627 36.0936 24.9998 36.0936C24.4372 36.0936 23.8795 36.0836 23.3271 36.0641C23.8848 36.4964 24.4433 36.9064 24.9998 37.2936ZM21.4555 26.0643L20.2272 29.2143L18.7422 28.5817L22.3195 19.4072H23.8048L27.3822 28.5817L25.8969 29.2143L24.6686 26.0643H21.4555ZM24.0146 24.3874L23.0621 21.9445L22.1095 24.3874H24.0146ZM28.2077 19.271H29.8115V29.0467H28.2077V19.271Z" fill="#274188"/>
</svg>
