<svg width="64" height="51" viewBox="0 0 64 51" fill="none" xmlns="http://www.w3.org/2000/svg">
<path d="M13.25 34.625C14.9102 34.625 16.375 36.0898 16.375 37.75V47.125C16.375 48.8828 14.9102 50.25 13.25 50.25H3.875C2.11719 50.25 0.75 48.8828 0.75 47.125V37.75C0.75 36.0898 2.11719 34.625 3.875 34.625H13.25ZM10.9062 26.8125V31.5H6.21875V25.9336C6.21875 23.8828 7.87891 22.125 9.92969 22.125H29.6562V15.875H25.75C23.9922 15.875 22.625 14.5078 22.625 12.75V3.375C22.625 1.71484 23.9922 0.25 25.75 0.25H38.25C39.9102 0.25 41.375 1.71484 41.375 3.375V12.75C41.375 14.5078 39.9102 15.875 38.25 15.875H34.3438V22.125H53.9727C56.0234 22.125 57.7812 23.8828 57.7812 25.9336V31.5H53.0938V26.8125H34.3438V31.5H29.6562V26.8125H10.9062ZM36.6875 34.625C38.3477 34.625 39.8125 36.0898 39.8125 37.75V47.125C39.8125 48.8828 38.3477 50.25 36.6875 50.25H27.3125C25.5547 50.25 24.1875 48.8828 24.1875 47.125V37.75C24.1875 36.0898 25.5547 34.625 27.3125 34.625H36.6875ZM60.125 34.625C61.7852 34.625 63.25 36.0898 63.25 37.75V47.125C63.25 48.8828 61.7852 50.25 60.125 50.25H50.75C48.9922 50.25 47.625 48.8828 47.625 47.125V37.75C47.625 36.0898 48.9922 34.625 50.75 34.625H60.125Z" fill="#274188"/>
</svg>
