<svg width="50" height="51" viewBox="0 0 50 51" fill="none" xmlns="http://www.w3.org/2000/svg">
<path d="M49.3164 2.20312C50 5.32812 50 7.76953 49.9023 10.2109C49.9023 20.2695 44.5312 26.3242 37.4023 30.8164V41.0703C37.4023 42.6328 36.3281 44.4883 34.8633 45.2695L25.1953 50.0547C24.9023 50.1523 24.5117 50.25 24.2188 50.25C22.8516 50.25 21.875 49.2734 21.7773 47.9062V37.8477L19.6289 39.9961C18.3594 41.2656 16.3086 41.0703 15.2344 39.9961L10.2539 35.0156C8.98438 33.7461 9.08203 31.6953 10.2539 30.6211L12.4023 28.375H2.34375C0.976562 28.375 0 27.3984 0 26.0312C0 25.7383 0.0976562 25.3477 0.195312 25.0547L4.98047 15.3867C5.76172 13.9219 7.61719 12.8477 9.17969 12.75H19.4336C23.9258 5.71875 29.9805 0.25 40.0391 0.25C42.4805 0.25 44.9219 0.25 48.0469 0.933594C48.6328 1.12891 49.1211 1.61719 49.3164 2.20312ZM37.5 16.6562C39.6484 16.6562 41.4062 14.9961 41.4062 12.75C41.4062 10.6016 39.6484 8.84375 37.5 8.84375C35.2539 8.84375 33.5938 10.6016 33.5938 12.75C33.5938 14.9961 35.2539 16.6562 37.5 16.6562Z" fill="#274188"/>
</svg>
