<svg width="45" height="45" viewBox="0 0 45 45" fill="none" xmlns="http://www.w3.org/2000/svg">
<path d="M32.5312 13.0466L41.4379 15.3814L43.6862 6.47466L41.9568 5.99905L40.53 11.5766C39.5788 10.0777 38.469 8.70854 37.2008 7.46909C35.9037 6.22965 34.4841 5.17035 32.942 4.29121C31.3999 3.41207 29.7497 2.72749 27.9914 2.23748C26.2331 1.77629 24.4028 1.54569 22.5003 1.54569C19.5891 1.54569 16.8364 2.09335 14.2422 3.18868C11.6768 4.31283 9.43571 5.83331 7.51889 7.75013C5.60207 9.66695 4.096 11.908 3.00068 14.4734C1.87653 17.0388 1.31445 19.7915 1.31445 22.7316C1.31445 25.6428 1.87653 28.3956 3.00068 30.9898C4.096 33.5551 5.60207 35.7962 7.51889 37.713C9.43571 39.6299 11.6768 41.1359 14.2422 42.2313C16.8364 43.3554 19.5891 43.9175 22.5003 43.9175C24.4604 43.9175 26.334 43.6581 28.1211 43.1392C29.937 42.6492 31.6305 41.943 33.2014 41.0206C34.7723 40.0983 36.2063 38.9885 37.5034 37.6914C38.7717 36.3943 39.867 34.9675 40.7894 33.411L39.2761 32.5895C38.4114 34.0019 37.3881 35.299 36.2063 36.4808C35.0245 37.6626 33.7202 38.6787 32.2934 39.529C30.8666 40.3793 29.3173 41.035 27.6455 41.4962C26.0025 41.9574 24.2875 42.188 22.5003 42.188C19.8197 42.188 17.2976 41.6692 14.934 40.6315C12.5704 39.6227 10.5094 38.2391 8.75113 36.4808C6.99285 34.7225 5.60928 32.6616 4.60043 30.298C3.56275 27.9344 3.04391 25.4123 3.04391 22.7316C3.04391 20.0509 3.56275 17.5288 4.60043 15.1652C5.60928 12.8016 6.99285 10.7407 8.75113 8.98237C10.5094 7.22409 12.5704 5.82611 14.934 4.78843C17.2976 3.77958 19.8197 3.27515 22.5003 3.27515C24.2875 3.27515 26.0169 3.50574 27.6887 3.96693C29.3605 4.45695 30.9171 5.12712 32.3583 5.97743C33.7995 6.82775 35.1254 7.84381 36.336 9.02561C37.5178 10.2362 38.5267 11.5622 39.3626 13.0034L32.9636 11.3171L32.5312 13.0466ZM23.4516 32.1139V30.5142C24.201 30.4565 24.8712 30.3196 25.462 30.1034C26.0529 29.8872 26.579 29.5774 27.0402 29.1738C27.4725 28.7703 27.804 28.3019 28.0346 27.7686C28.2652 27.2354 28.3805 26.6517 28.3805 26.0176C28.3805 25.3258 28.2868 24.7349 28.0995 24.2449C27.9121 23.7549 27.6167 23.3513 27.2131 23.0342C26.8096 22.6883 26.3052 22.3785 25.6999 22.1047C25.0945 21.8308 24.3739 21.6074 23.538 21.4345H23.4516V17.2838C24.028 17.3703 24.5685 17.5072 25.0729 17.6945C25.5773 17.8819 26.0746 18.1629 26.5646 18.5376L28.0346 16.5488C27.314 16.0588 26.5718 15.6768 25.8079 15.403C25.0441 15.1292 24.2586 14.9778 23.4516 14.949V13.8681H22.068V14.949C21.405 14.9778 20.7853 15.1075 20.2088 15.3381C19.6323 15.5687 19.1135 15.8858 18.6523 16.2893C18.2199 16.6929 17.8885 17.1613 17.6579 17.6945C17.4273 18.2278 17.312 18.8115 17.312 19.4456C17.312 20.0797 17.4056 20.6346 17.593 21.1102C17.7804 21.5858 18.0758 21.9822 18.4794 22.2992C18.8252 22.6163 19.3081 22.9117 19.9278 23.1856C20.5475 23.4594 21.2609 23.6828 22.068 23.8557V28.0929C21.4338 27.9776 20.8069 27.7686 20.1872 27.466C19.5675 27.1633 18.9405 26.7382 18.3064 26.1905L16.6634 28.0929C17.4705 28.8135 18.328 29.3756 19.236 29.7791C20.144 30.1827 21.088 30.4277 22.068 30.5142V32.1139H23.4516ZM23.538 24.2881C23.9704 24.4322 24.3307 24.5691 24.6189 24.6988C24.9072 24.8286 25.1378 24.9655 25.3107 25.1096C25.4548 25.2825 25.5701 25.4699 25.6566 25.6717C25.7431 25.8734 25.7863 26.104 25.7863 26.3635C25.7863 26.6229 25.7359 26.8535 25.635 27.0552C25.5341 27.257 25.3684 27.4444 25.1378 27.6173C24.9072 27.7903 24.655 27.9272 24.3811 28.0281C24.1073 28.1289 23.8263 28.2082 23.538 28.2659V24.2881ZM20.3818 20.4401C20.2376 20.2959 20.1223 20.1158 20.0359 19.8996C19.9494 19.6834 19.9062 19.4744 19.9062 19.2727C19.9062 18.9844 19.9566 18.7466 20.0575 18.5593C20.1584 18.3719 20.2953 18.1773 20.4682 17.9756C20.6988 17.8026 20.9366 17.6657 21.1816 17.5648C21.4266 17.4639 21.7221 17.3991 22.068 17.3703V21.2183C21.6356 21.103 21.2753 20.9733 20.9871 20.8292C20.6988 20.6851 20.4971 20.5553 20.3818 20.4401Z" fill="#274188"/>
</svg>
