<svg width="27" height="27" viewBox="0 0 27 27" fill="none" xmlns="http://www.w3.org/2000/svg">
<g clip-path="url(#clip0_2418_15267)">
<path d="M19.8668 12.9117C19.7458 12.7735 19.5947 12.7044 19.4132 12.7044C19.2318 12.7044 19.072 12.7735 18.9338 12.9117L13.4398 18.4057V3.4268C13.4398 3.23676 13.3751 3.07695 13.2455 2.94738C13.1159 2.8178 12.9561 2.75302 12.7661 2.75302C12.5933 2.75302 12.4421 2.8178 12.3125 2.94738C12.183 3.07695 12.1182 3.23676 12.1182 3.4268V18.4057L6.62421 12.9117C6.486 12.7735 6.32619 12.7044 6.14479 12.7044C5.96338 12.7044 5.80357 12.7735 5.66536 12.9117C5.54442 13.0326 5.48395 13.1881 5.48395 13.3782C5.48395 13.5682 5.54442 13.7237 5.66536 13.8446L12.2996 20.4789C12.3687 20.548 12.4421 20.5998 12.5199 20.6343C12.5976 20.6689 12.6797 20.6862 12.7661 20.6862C12.8524 20.6862 12.9388 20.6689 13.0252 20.6343C13.1116 20.5998 13.1893 20.548 13.2584 20.4789L19.8927 13.8446C20.0136 13.7237 20.0741 13.5682 20.0741 13.3782C20.0741 13.1881 20.005 13.0326 19.8668 12.9117ZM23.3912 25.325H2.16684C1.61399 25.325 1.1432 25.1306 0.754473 24.7419C0.365749 24.3531 0.171387 23.8824 0.171387 23.3295V20.6862C0.171387 20.4961 0.236174 20.3363 0.365749 20.2067C0.495324 20.0772 0.655133 20.0124 0.845176 20.0124C1.01794 20.0124 1.16911 20.0772 1.29869 20.2067C1.42826 20.3363 1.49305 20.4961 1.49305 20.6862V23.3295C1.49305 23.5195 1.55784 23.6794 1.68741 23.8089C1.81699 23.9385 1.9768 24.0033 2.16684 24.0033H23.3912C23.5812 24.0033 23.741 23.9385 23.8706 23.8089C24.0002 23.6794 24.065 23.5195 24.065 23.3295V20.6862C24.065 20.4961 24.1298 20.3363 24.2593 20.2067C24.3889 20.0772 24.5401 20.0124 24.7129 20.0124C24.9029 20.0124 25.0627 20.0772 25.1923 20.2067C25.3219 20.3363 25.3867 20.4961 25.3867 20.6862V23.3295C25.3867 23.8824 25.1923 24.3531 24.8036 24.7419C24.4148 25.1306 23.944 25.325 23.3912 25.325Z" fill="white"/>
</g>
<defs>
<clipPath id="clip0_2418_15267">
<rect width="26.5369" height="26.5369" fill="white" transform="matrix(1 0 0 -1 0.171387 26.6467)"/>
</clipPath>
</defs>
</svg>
