<svg width="16" height="16" viewBox="0 0 16 16" fill="none" xmlns="http://www.w3.org/2000/svg">
<path d="M10.7207 7.84473L15.0176 12.1846C15.5762 12.7002 15.5762 13.5596 15.0176 14.0752L14.0723 15.0205C13.5566 15.5791 12.6973 15.5791 12.1816 15.0205L7.88477 10.7236L3.54492 15.0205C3.0293 15.5791 2.16992 15.5791 1.6543 15.0205L0.708984 14.0752C0.150391 13.5596 0.150391 12.7002 0.708984 12.1846L5.00586 7.84473L0.708984 3.54785C0.150391 3.03223 0.150391 2.17285 0.708984 1.65723L1.6543 0.711914C2.16992 0.15332 3.0293 0.15332 3.54492 0.711914L7.88477 5.00879L12.1816 0.711914C12.6973 0.15332 13.5566 0.15332 14.0723 0.711914L15.0176 1.65723C15.5762 2.17285 15.5762 3.03223 15.0176 3.54785L10.7207 7.84473Z" fill="#FF0046"/>
</svg>
