<svg width="9" height="9" viewBox="0 0 9 9" fill="none" xmlns="http://www.w3.org/2000/svg">
<path d="M5.6445 4.11555L7.20251 5.68914C7.40505 5.87611 7.40505 6.18771 7.20251 6.37467L6.85975 6.71743C6.67278 6.91997 6.36118 6.91997 6.17422 6.71743L4.61621 5.15942L3.04262 6.71743C2.85566 6.91997 2.54406 6.91997 2.3571 6.71743L2.01433 6.37467C1.81179 6.18771 1.81179 5.87611 2.01433 5.68914L3.57234 4.11555L2.01433 2.55754C1.81179 2.37058 1.81179 2.05898 2.01433 1.87202L2.3571 1.52926C2.54406 1.32672 2.85566 1.32672 3.04262 1.52926L4.61621 3.08727L6.17422 1.52926C6.36118 1.32672 6.67278 1.32672 6.85975 1.52926L7.20251 1.87202C7.40505 2.05898 7.40505 2.37058 7.20251 2.55754L5.6445 4.11555Z" fill="#FF0046"/>
</svg>
