<svg width="45" height="45" viewBox="0 0 45 45" fill="none" xmlns="http://www.w3.org/2000/svg">
<g clip-path="url(#clip0_2418_14727)">
<path d="M43.7295 43.0095H1.27125C1.04065 43.0095 0.831677 43.1032 0.644319 43.2905C0.45696 43.4779 0.363281 43.7013 0.363281 43.9607C0.363281 44.1913 0.45696 44.4003 0.644319 44.5876C0.831677 44.775 1.04065 44.8687 1.27125 44.8687H43.7295C43.9889 44.8687 44.2051 44.775 44.3781 44.5876C44.551 44.4003 44.6375 44.1913 44.6375 43.9607C44.6375 43.7013 44.5438 43.4779 44.3564 43.2905C44.1691 43.1032 43.9601 43.0095 43.7295 43.0095ZM8.66469 31.9409H3.13042C2.871 31.9409 2.65482 32.0346 2.48187 32.222C2.30892 32.4093 2.22245 32.6327 2.22245 32.8921V43.9607C2.22245 44.1913 2.30892 44.4003 2.48187 44.5876C2.65482 44.775 2.871 44.8687 3.13042 44.8687H8.66469C8.92411 44.8687 9.14029 44.775 9.31324 44.5876C9.48619 44.4003 9.57266 44.1913 9.57266 43.9607V32.8921C9.57266 32.6327 9.48619 32.4093 9.31324 32.222C9.14029 32.0346 8.92411 31.9409 8.66469 31.9409ZM7.75673 43.0095H4.03839V33.8001H7.75673V43.0095ZM19.7332 22.7316H14.199C13.9395 22.7316 13.7234 22.818 13.5504 22.991C13.3775 23.1639 13.291 23.3801 13.291 23.6395V43.9607C13.291 44.1913 13.3775 44.4003 13.5504 44.5876C13.7234 44.775 13.9395 44.8687 14.199 44.8687H19.7332C19.9927 44.8687 20.2088 44.775 20.3818 44.5876C20.5547 44.4003 20.6412 44.1913 20.6412 43.9607V23.6395C20.6412 23.3801 20.5547 23.1639 20.3818 22.991C20.2088 22.818 19.9927 22.7316 19.7332 22.7316ZM18.8253 43.0095H15.1069V24.5475H18.8253V43.0095ZM30.8018 26.4067H25.2675C25.0081 26.4067 24.7919 26.5003 24.619 26.6877C24.446 26.8751 24.3595 27.0984 24.3595 27.3579V43.9607C24.3595 44.1913 24.446 44.4003 24.619 44.5876C24.7919 44.775 25.0081 44.8687 25.2675 44.8687H30.8018C31.0612 44.8687 31.2774 44.775 31.4503 44.5876C31.6233 44.4003 31.7098 44.1913 31.7098 43.9607V27.3579C31.7098 27.0984 31.6233 26.8751 31.4503 26.6877C31.2774 26.5003 31.0612 26.4067 30.8018 26.4067ZM29.8938 43.0095H26.1755V28.2658H29.8938V43.0095ZM41.8703 15.3381H36.3361C36.0766 15.3381 35.8605 15.4318 35.6875 15.6191C35.5146 15.8065 35.4281 16.0299 35.4281 16.2893V43.9607C35.4281 44.1913 35.5146 44.4003 35.6875 44.5876C35.8605 44.775 36.0766 44.8687 36.3361 44.8687H41.8703C42.1298 44.8687 42.3459 44.775 42.5189 44.5876C42.6918 44.4003 42.7783 44.1913 42.7783 43.9607V16.2893C42.7783 16.0299 42.6918 15.8065 42.5189 15.6191C42.3459 15.4318 42.1298 15.3381 41.8703 15.3381ZM40.9624 43.0095H37.244V17.1973H40.9624V43.0095ZM5.89756 17.1973C4.8887 17.1973 4.02397 17.5576 3.30336 18.2782C2.58276 18.9988 2.22245 19.8635 2.22245 20.8724C2.22245 21.9101 2.58276 22.7892 3.30336 23.5098C4.02397 24.2304 4.8887 24.5907 5.89756 24.5907C6.90641 24.5907 7.77114 24.2304 8.49175 23.5098C9.21235 22.7892 9.57266 21.9101 9.57266 20.8724C9.57266 19.8635 9.21235 18.9988 8.49175 18.2782C7.77114 17.5576 6.90641 17.1973 5.89756 17.1973ZM5.89756 22.7316C5.37872 22.7316 4.93915 22.5514 4.57884 22.1911C4.21854 21.8308 4.03839 21.3912 4.03839 20.8724C4.03839 20.3535 4.21854 19.9212 4.57884 19.5753C4.93915 19.2294 5.37872 19.0565 5.89756 19.0565C6.41639 19.0565 6.85596 19.2366 7.21627 19.5969C7.57657 19.9572 7.75673 20.3824 7.75673 20.8724C7.75673 21.3912 7.57657 21.8308 7.21627 22.1911C6.85596 22.5514 6.41639 22.7316 5.89756 22.7316ZM16.9661 7.94467C15.9573 7.94467 15.0925 8.30497 14.3719 9.02558C13.6513 9.74619 13.291 10.6253 13.291 11.663C13.291 12.6719 13.6513 13.5366 14.3719 14.2572C15.0925 14.9778 15.9573 15.3381 16.9661 15.3381C17.975 15.3381 18.8397 14.9778 19.5603 14.2572C20.2809 13.5366 20.6412 12.6719 20.6412 11.663C20.6412 10.6542 20.2809 9.78222 19.5603 9.0472C18.8397 8.31218 17.975 7.94467 16.9661 7.94467ZM16.9661 13.4789C16.4473 13.4789 16.0077 13.2988 15.6474 12.9385C15.2871 12.5782 15.1069 12.153 15.1069 11.663C15.1069 11.1442 15.2871 10.7046 15.6474 10.3443C16.0077 9.98399 16.4473 9.80384 16.9661 9.80384C17.4849 9.80384 17.9245 9.98399 18.2848 10.3443C18.6451 10.7046 18.8253 11.1442 18.8253 11.663C18.8253 12.153 18.6451 12.5782 18.2848 12.9385C17.9245 13.2988 17.4849 13.4789 16.9661 13.4789ZM28.0347 11.663C27.0258 11.663 26.1611 12.0233 25.4405 12.7439C24.7199 13.4645 24.3595 14.3293 24.3595 15.3381C24.3595 16.3758 24.7199 17.2549 25.4405 17.9755C26.1611 18.6961 27.0258 19.0565 28.0347 19.0565C29.0435 19.0565 29.9082 18.6961 30.6288 17.9755C31.3495 17.2549 31.7098 16.3758 31.7098 15.3381C31.7098 14.3293 31.3495 13.4645 30.6288 12.7439C29.9082 12.0233 29.0435 11.663 28.0347 11.663ZM28.0347 17.1973C27.5158 17.1973 27.0762 17.0171 26.7159 16.6568C26.3556 16.2965 26.1755 15.857 26.1755 15.3381C26.1755 14.8481 26.3556 14.4229 26.7159 14.0626C27.0762 13.7023 27.5158 13.5222 28.0347 13.5222C28.5535 13.5222 28.9931 13.7023 29.3534 14.0626C29.7137 14.4229 29.8938 14.8481 29.8938 15.3381C29.8938 15.857 29.7137 16.2965 29.3534 16.6568C28.9931 17.0171 28.5535 17.1973 28.0347 17.1973ZM39.1032 0.59446C38.0943 0.59446 37.2296 0.954765 36.509 1.67537C35.7884 2.39598 35.4281 3.26071 35.4281 4.26956C35.4281 5.30724 35.7884 6.18638 36.509 6.90699C37.2296 7.6276 38.0943 7.9879 39.1032 7.9879C40.1121 7.9879 40.9768 7.6276 41.6974 6.90699C42.418 6.18638 42.7783 5.30724 42.7783 4.26956C42.7783 3.26071 42.418 2.39598 41.6974 1.67537C40.9768 0.954765 40.1121 0.59446 39.1032 0.59446ZM39.1032 6.12873C38.5844 6.12873 38.1448 5.94858 37.7845 5.58828C37.4242 5.22797 37.244 4.7884 37.244 4.26956C37.244 3.77955 37.4242 3.35439 37.7845 2.99409C38.1448 2.63378 38.5844 2.45363 39.1032 2.45363C39.622 2.45363 40.0616 2.63378 40.4219 2.99409C40.7822 3.35439 40.9624 3.77955 40.9624 4.26956C40.9624 4.7884 40.7822 5.22797 40.4219 5.58828C40.0616 5.94858 39.622 6.12873 39.1032 6.12873ZM37.8061 5.56666C37.6332 5.39371 37.417 5.30724 37.1576 5.30724C36.8981 5.30724 36.682 5.39371 36.509 5.56666L29.3317 12.7439C29.1588 12.9169 29.0723 13.133 29.0723 13.3925C29.0723 13.6519 29.1588 13.8681 29.3317 14.041C29.4182 14.1275 29.5191 14.1923 29.6344 14.2356C29.7497 14.2788 29.865 14.3004 29.9803 14.3004C30.0956 14.3004 30.2109 14.2788 30.3262 14.2356C30.4415 14.1923 30.5424 14.1275 30.6288 14.041L37.8061 6.86375C37.979 6.69081 38.0655 6.47462 38.0655 6.21521C38.0655 5.95579 37.979 5.7396 37.8061 5.56666ZM25.7864 13.2195L19.8629 11.5333C19.6324 11.4468 19.4018 11.4684 19.1712 11.5982C18.9406 11.7279 18.7964 11.908 18.7388 12.1386C18.6812 12.398 18.71 12.6358 18.8253 12.852C18.9406 13.0682 19.1279 13.2195 19.3873 13.306L25.3108 14.9922C25.3396 14.9922 25.3756 14.9994 25.4188 15.0138C25.4621 15.0282 25.4981 15.0355 25.5269 15.0355C25.7287 15.0355 25.9161 14.9706 26.089 14.8409C26.262 14.7112 26.3773 14.5454 26.4349 14.3437C26.5214 14.1131 26.4998 13.8825 26.37 13.6519C26.2403 13.4213 26.0458 13.2772 25.7864 13.2195ZM15.5393 12.7872C15.3664 12.6142 15.1574 12.5061 14.9124 12.4629C14.6674 12.4196 14.444 12.4845 14.2422 12.6574L7.28112 18.1917C7.07935 18.3647 6.96406 18.5736 6.93523 18.8187C6.90641 19.0637 6.97847 19.287 7.15141 19.4888C7.23789 19.6041 7.34598 19.6906 7.47569 19.7482C7.6054 19.8059 7.7279 19.8347 7.8432 19.8347C7.9585 19.8347 8.06659 19.8203 8.16747 19.7915C8.26836 19.7626 8.34762 19.7194 8.40527 19.6618L15.3664 14.0843C15.5681 13.9401 15.6834 13.7384 15.7122 13.4789C15.7411 13.2195 15.6834 12.9889 15.5393 12.7872Z" fill="#F4F4F4"/>
</g>
<defs>
<clipPath id="clip0_2418_14727">
<rect width="44.2742" height="44.2742" fill="white" transform="matrix(1 0 0 -1 0.363281 44.3066)"/>
</clipPath>
</defs>
</svg>
